<svg width="28" height="28" viewBox="0 0 28 28" fill="none" xmlns="http://www.w3.org/2000/svg">
<path fill-rule="evenodd" clip-rule="evenodd" d="M0.666668 2.00002C0.666668 1.26364 1.26362 0.666687 2 0.666687H4.66667C5.30224 0.666687 5.84946 1.1153 5.97411 1.73853L6.29307 3.33335H26C26.4621 3.33335 26.8913 3.57262 27.1342 3.96571C27.3771 4.3588 27.3992 4.84965 27.1926 5.26297L21.8592 15.9296C21.6334 16.3813 21.1717 16.6667 20.6667 16.6667H7.88562L5.21895 19.3334H20.6667C21.7275 19.3334 22.7449 19.7548 23.4951 20.5049C24.2452 21.2551 24.6667 22.2725 24.6667 23.3334C24.6667 24.3942 24.2452 25.4116 23.4951 26.1618C22.7449 26.9119 21.7275 27.3334 20.6667 27.3334C19.6058 27.3334 18.5884 26.9119 17.8382 26.1618C17.0881 25.4116 16.6667 24.3942 16.6667 23.3334C16.6667 22.8748 16.7454 22.4243 16.8954 22H11.1046C11.2546 22.4243 11.3333 22.8748 11.3333 23.3334C11.3333 24.3942 10.9119 25.4116 10.1618 26.1618C9.41162 26.9119 8.3942 27.3334 7.33333 27.3334C6.27247 27.3334 5.25505 26.9119 4.50491 26.1618C3.75476 25.4116 3.33333 24.3942 3.33333 23.3334C3.33333 22.7146 3.47672 22.1106 3.74507 21.5658C2.43875 20.6989 2.05366 18.7274 3.33319 17.4479L5.88595 14.8951L3.5736 3.33335H2C1.26362 3.33335 0.666668 2.7364 0.666668 2.00002ZM8.42641 14H19.8426L23.8426 6.00002H6.82641L8.42641 14ZM7.33333 22C6.97971 22 6.64057 22.1405 6.39053 22.3905C6.14048 22.6406 6 22.9797 6 23.3334C6 23.687 6.14048 24.0261 6.39053 24.2762C6.64057 24.5262 6.97971 24.6667 7.33333 24.6667C7.68696 24.6667 8.02609 24.5262 8.27614 24.2762C8.52619 24.0261 8.66667 23.687 8.66667 23.3334C8.66667 22.9797 8.52619 22.6406 8.27614 22.3905C8.02609 22.1405 7.68696 22 7.33333 22ZM20.6667 22C20.313 22 19.9739 22.1405 19.7239 22.3905C19.4738 22.6406 19.3333 22.9797 19.3333 23.3334C19.3333 23.687 19.4738 24.0261 19.7239 24.2762C19.9739 24.5262 20.313 24.6667 20.6667 24.6667C21.0203 24.6667 21.3594 24.5262 21.6095 24.2762C21.8595 24.0261 22 23.687 22 23.3334C22 22.9797 21.8595 22.6406 21.6095 22.3905C21.3594 22.1405 21.0203 22 20.6667 22Z" fill="#1E293B"/>
</svg>
