<svg width="25" height="24" viewBox="0 0 25 24" fill="none" xmlns="http://www.w3.org/2000/svg">
<g clip-path="url(#clip0_368_3879)">
<path d="M4.84631 6C4.84631 6.79565 5.68917 7.55871 7.18946 8.12132C8.68975 8.68393 10.7246 9 12.8463 9C14.968 9 17.0029 8.68393 18.5032 8.12132C20.0035 7.55871 20.8463 6.79565 20.8463 6C20.8463 5.20435 20.0035 4.44129 18.5032 3.87868C17.0029 3.31607 14.968 3 12.8463 3C10.7246 3 8.68975 3.31607 7.18946 3.87868C5.68917 4.44129 4.84631 5.20435 4.84631 6Z" stroke="#1E293B" stroke-width="2" stroke-linecap="round" stroke-linejoin="round"/>
<path d="M4.84631 6V12C4.84631 12.7956 5.68917 13.5587 7.18946 14.1213C8.68975 14.6839 10.7246 15 12.8463 15C14.968 15 17.0029 14.6839 18.5032 14.1213C20.0035 13.5587 20.8463 12.7956 20.8463 12V6" stroke="#1E293B" stroke-width="2" stroke-linecap="round" stroke-linejoin="round"/>
<path d="M4.84631 12V18C4.84631 18.7956 5.68917 19.5587 7.18946 20.1213C8.68975 20.6839 10.7246 21 12.8463 21C14.968 21 17.0029 20.6839 18.5032 20.1213C20.0035 19.5587 20.8463 18.7956 20.8463 18V12" stroke="#1E293B" stroke-width="2" stroke-linecap="round" stroke-linejoin="round"/>
</g>
<defs>
<clipPath id="clip0_368_3879">
<rect width="24" height="24" fill="white" transform="translate(0.846313)"/>
</clipPath>
</defs>
</svg>
