<svg width="24" height="24" viewBox="0 0 24 24" fill="none" xmlns="http://www.w3.org/2000/svg">
<path d="M22.2955 12.2419C22.2955 11.5282 22.2376 10.8106 22.1141 10.1084H12.2104V14.1516H17.8818C17.6465 15.4556 16.8903 16.6092 15.783 17.3422V19.9657H19.1666C21.1535 18.137 22.2955 15.4363 22.2955 12.2419Z" fill="#4285F4"/>
<path d="M12.2105 22.5004C15.0423 22.5004 17.4304 21.5706 19.1704 19.9656L15.7869 17.3422C14.8455 17.9826 13.6302 18.3453 12.2143 18.3453C9.47509 18.3453 7.15253 16.4973 6.31919 14.0127H2.82764V16.7172C4.61006 20.2627 8.2405 22.5004 12.2105 22.5004Z" fill="#34A853"/>
<path d="M6.31505 14.0126C5.87523 12.7086 5.87523 11.2966 6.31505 9.99257V7.28809H2.82736C1.33815 10.2549 1.33815 13.7503 2.82736 16.7171L6.31505 14.0126Z" fill="#FBBC04"/>
<path d="M12.2105 5.65581C13.7074 5.63266 15.1542 6.19593 16.2383 7.22989L19.236 4.2322C17.3378 2.44978 14.8185 1.46984 12.2105 1.50071C8.2405 1.50071 4.61006 3.73837 2.82764 7.28776L6.31533 9.99224C7.14481 7.50381 9.47123 5.65581 12.2105 5.65581Z" fill="#EA4335"/>
</svg>
