<svg width="138" height="175" viewBox="0 0 138 175" fill="none" xmlns="http://www.w3.org/2000/svg">
<g opacity="0.6">
<path fill-rule="evenodd" clip-rule="evenodd" d="M14.8763 5.23828H95.0159C104.752 5.23828 112.947 13.4738 112.947 24.0941V65.0645H117.947V24.0941C117.947 10.9005 107.698 0.238281 95.0159 0.238281H14.8763C-13.2162 0.238281 -36 23.9407 -36 53.1661V115.759C-36 128.953 -25.751 139.615 -13.0688 139.615H32.5925V134.615H-13.0688C-22.8051 134.615 -31 126.379 -31 115.759V53.1661C-31 26.514 -10.2704 5.23828 14.8763 5.23828Z" fill="white" fill-opacity="0.12"/>
<path d="M120.931 70.3405H76.1466C55.2361 70.3405 38.2772 88.1389 38.2772 110.085V157.086C38.2772 166.994 45.906 175 55.3459 175H100.131C121.041 175 138 157.202 138 135.256V88.2541C138 78.3469 130.371 70.3405 120.931 70.3405Z" fill="#D9D9D9" fill-opacity="0.12"/>
<path d="M76.1466 72.8405H120.931C128.878 72.8405 135.5 79.6124 135.5 88.2541V135.256C135.5 155.936 119.548 172.5 100.131 172.5H55.3459C47.3992 172.5 40.7772 165.728 40.7772 157.086V110.085C40.7772 89.4044 56.7293 72.8405 76.1466 72.8405Z" stroke="white" stroke-opacity="0.12" stroke-width="5"/>
</g>
</svg>
