<svg width="130" height="48" viewBox="0 0 130 48" fill="none" xmlns="http://www.w3.org/2000/svg">
<path d="M2.75005 26.0018C2.75005 23.4861 4.96186 21.8333 8.35248 21.8333C11.658 21.8333 13.8577 23.5226 13.9063 26.0747H10.6251C10.5521 25.0174 9.66498 24.349 8.30387 24.349C7.02783 24.349 6.17714 24.9202 6.17714 25.783C6.17714 26.4514 6.76047 26.9011 7.9636 27.1806L10.4792 27.7274C13.165 28.3351 14.2344 29.3681 14.2344 31.3611C14.2344 33.9618 11.8403 35.6754 8.34033 35.6754C4.81603 35.6754 2.60422 33.974 2.42193 31.3976H5.88547C6.05561 32.5278 6.96707 33.1597 8.43755 33.1597C9.84728 33.1597 10.7101 32.6129 10.7101 31.7379C10.7101 31.0452 10.2483 30.6806 9.03304 30.3889L6.56603 29.8299C4.0504 29.2587 2.75005 27.9583 2.75005 26.0018ZM16.1424 35.4445V22.0643H19.691V35.4445H16.1424ZM17.9167 20.6059C16.8716 20.6059 16.0087 19.8038 16.0087 18.7465C16.0087 17.6893 16.8716 16.8993 17.9167 16.8993C18.974 16.8993 19.8369 17.6893 19.8369 18.7465C19.8369 19.8038 18.974 20.6059 17.9167 20.6059ZM22.158 35.4445V22.0643H25.5851V24.4948H25.658C26.2292 22.8785 27.6876 21.8698 29.474 21.8698C31.3941 21.8698 32.7553 22.8542 33.2049 24.6042H33.2778C33.8855 22.9271 35.4896 21.8698 37.4341 21.8698C40.0591 21.8698 41.8212 23.6563 41.8212 26.3542V35.4445H38.2726V27.2413C38.2726 25.6736 37.4827 24.8108 36.0365 24.8108C34.6389 24.8108 33.7032 25.8316 33.7032 27.3507V35.4445H30.2761V27.1077C30.2761 25.6736 29.4497 24.8108 28.0764 24.8108C26.6789 24.8108 25.7066 25.8802 25.7066 27.3993V35.4445H22.158Z" fill="#CF3525"/>
<path d="M114.329 16.2943C113.43 16.2943 112.703 15.5679 112.703 14.6687V10.3632C105.423 6.86835 52.71 7.09425 48.6759 12.0863C44.0655 17.787 43.0105 36.7541 48.6759 41.4139C54.3414 46.0738 109.56 46.0206 115.265 41.4139C119.906 37.6666 120.429 24.037 117.668 16.2943H114.329Z" fill="#CF3525"/>
<path d="M113.714 2.22217H111.721C110.791 2.22217 110.034 2.98065 110.034 3.91212V5.90813C110.034 6.32951 110.375 6.66661 110.791 6.66661H112.784C113.714 6.66661 114.471 5.90813 114.471 4.97666V2.98065C114.475 2.56371 114.134 2.22217 113.714 2.22217Z" fill="#CF3525"/>
<path d="M127.468 1.77777H125.476C124.546 1.77777 123.789 2.53625 123.789 3.46772V5.46373C123.789 5.88511 124.13 6.22222 124.546 6.22222H126.538C127.468 6.22222 128.225 5.46373 128.225 4.53226V2.53625C128.23 2.11931 127.889 1.77777 127.468 1.77777Z" fill="#CF3525"/>
<path d="M125.908 13.3333H123.317C122.108 13.3333 121.126 14.3167 121.126 15.5273V18.1234C121.126 18.6697 121.567 19.1111 122.112 19.1111H124.704C125.913 19.1111 126.894 18.1277 126.894 16.9171V14.321C126.894 13.7747 126.449 13.3333 125.908 13.3333Z" fill="#CF3525"/>
<path d="M121.166 5.77777H117.779C116.198 5.77777 114.915 7.13826 114.915 8.81575V12.4085C114.915 13.1658 115.492 13.7778 116.206 13.7778H119.593C121.175 13.7778 122.457 12.4173 122.457 10.7398V7.14706C122.457 6.38977 121.88 5.77777 121.166 5.77777Z" fill="#CF3525"/>
<path d="M52.8179 19.0868H56.3665V22.0643H58.8457V24.75H56.3665V31.2518C56.3665 32.2847 56.8769 32.783 57.9585 32.783C58.2745 32.783 58.6269 32.7587 58.8457 32.7222V35.3472C58.4811 35.4202 57.8492 35.4931 57.1321 35.4931C54.0332 35.4931 52.8179 34.4479 52.8179 31.8351V24.75H51.0071V22.0643H52.8179V19.0868ZM66.6599 24.4827C65.0436 24.4827 63.8526 25.6615 63.7311 27.375H69.5037C69.4429 25.625 68.3005 24.4827 66.6599 24.4827ZM69.5523 31.3611H72.8214C72.4325 33.9497 70.0141 35.6754 66.7571 35.6754C62.686 35.6754 60.1946 33.0625 60.1946 28.809C60.1946 24.5556 62.6981 21.8333 66.6235 21.8333C70.4759 21.8333 72.9308 24.4097 72.9308 28.4809V29.5747H63.6946V29.7934C63.6946 31.7257 64.9464 33.0261 66.8179 33.0261C68.1547 33.0261 69.212 32.3941 69.5523 31.3611ZM74.936 35.4445V17.0695H78.4846V35.4445H74.936ZM83.2485 35.5903C82.1547 35.5903 81.2919 34.7153 81.2919 33.6337C81.2919 32.5399 82.1547 31.6771 83.2485 31.6771C84.3422 31.6771 85.2051 32.5399 85.2051 33.6337C85.2051 34.7153 84.3422 35.5903 83.2485 35.5903ZM98.403 22.0643L93.7849 35.4445H89.7988L85.1564 22.0643H88.9481L91.7919 32.2726H91.8648L94.6964 22.0643H98.403ZM99.7033 35.4445V22.0643H103.13V24.4583H103.203C103.969 22.7691 105.33 21.8698 107.384 21.8698C110.349 21.8698 112.026 23.7413 112.026 26.8646V35.4445H108.478V27.6059C108.478 25.8316 107.651 24.8229 105.974 24.8229C104.273 24.8229 103.252 26.0382 103.252 27.8125V35.4445H99.7033Z" fill="white"/>
</svg>
