<svg width="24" height="24" viewBox="0 0 24 24" fill="none" xmlns="http://www.w3.org/2000/svg">
<path fill-rule="evenodd" clip-rule="evenodd" d="M0 12C0 18.6274 5.37258 24 12 24C18.6274 24 24 18.6274 24 12C24 5.37258 18.6274 0 12 0C5.37258 0 0 5.37258 0 12ZM7.42864 19.1822V16.6207C5.82444 15.3999 4.8 13.5407 4.8 11.4584C4.8 7.78106 7.99502 4.8 11.9363 4.8C15.8778 4.8 19.0726 7.78106 19.0726 11.4584C19.0726 15.1355 15.8778 18.1168 11.9363 18.1168C11.201 18.1168 10.4913 18.013 9.82369 17.8205L7.42864 19.1822Z" fill="#F8FAFC"/>
<path d="M11.1742 9.63477L7.32568 13.7096L10.8282 11.7879L12.6582 13.7096L16.485 9.63477L13.0214 11.5228L11.1742 9.63477Z" fill="#F8FAFC"/>
</svg>
