<svg width="332" height="333" viewBox="0 0 332 333" fill="none" xmlns="http://www.w3.org/2000/svg">
<path d="M52.9392 331L3.61274 331C2.72205 331 2 330.278 2 329.387L2 279.223" stroke="#2BA156" stroke-width="3.22549" stroke-linecap="round"/>
<path d="M2 53.777L2.00005 3.61274C2.00005 2.72205 2.7221 2 3.61279 2L52.9392 2" stroke="#2BA156" stroke-width="3.22549" stroke-linecap="round"/>
<path d="M278.982 2L328.308 2.00005C329.199 2.00005 329.921 2.7221 329.921 3.61279L329.921 53.777" stroke="#2BA156" stroke-width="3.22549" stroke-linecap="round"/>
<path d="M329.921 279.223L329.921 329.387C329.921 330.278 329.199 331 328.308 331L278.982 331" stroke="#2BA156" stroke-width="3.22549" stroke-linecap="round"/>
<g clip-path="url(#clip0_170_3474)">
<path d="M117.311 37.4805H36.6742V118.118H117.311V37.4805ZM101.184 101.99H52.8016V53.6079H101.184V101.99Z" fill="#1E293B"/>
<path d="M85.0567 69.7354H68.9293V85.8628H85.0567V69.7354Z" fill="#1E293B"/>
<path d="M214.076 37.4805V118.118H294.714V37.4805H214.076ZM278.586 101.99H230.204V53.6079H278.586V101.99Z" fill="#1E293B"/>
<path d="M262.459 69.7354H246.331V85.8628H262.459V69.7354Z" fill="#1E293B"/>
<path d="M36.6742 295.52H117.311V214.883H36.6742V295.52ZM52.8016 231.01H101.184V279.393H52.8016V231.01Z" fill="#1E293B"/>
<path d="M85.0565 247.138H68.9291V263.265H85.0565V247.138Z" fill="#1E293B"/>
<path d="M197.949 37.4805H165.694V53.6079H197.949V37.4805Z" fill="#1E293B"/>
<path d="M165.694 101.99H181.822V85.8623H197.949V69.7349H149.567V53.6074H133.439V69.7349V77.7986V85.8623H165.694V101.99Z" fill="#1E293B"/>
<path d="M149.567 101.99H133.439V118.118H149.567V101.99Z" fill="#1E293B"/>
<path d="M197.949 118.117H181.822V134.245H133.439V150.372H197.949V118.117Z" fill="#1E293B"/>
<path d="M52.8018 182.627H68.9293V166.5H52.8018V134.245H36.6744V198.755H52.8018V182.627Z" fill="#1E293B"/>
<path d="M85.0567 134.245H68.9293V150.373H85.0567V134.245Z" fill="#1E293B"/>
<path d="M133.439 198.755H165.694V182.627H149.567V166.5H117.312V134.245H101.184V166.5H85.0568V198.755H101.184V182.627H109.248H117.312H133.439V198.755Z" fill="#1E293B"/>
<path d="M197.949 166.5H181.821V198.755H197.949V166.5Z" fill="#1E293B"/>
<path d="M181.822 214.883H133.439V231.01H165.694V279.393H133.439V295.52H181.822V279.393H214.077V263.265H181.822V214.883Z" fill="#1E293B"/>
<path d="M149.567 247.138H133.439V263.265H149.567V247.138Z" fill="#1E293B"/>
<path d="M214.077 214.883H197.949V247.138H214.077V214.883Z" fill="#1E293B"/>
<path d="M278.586 247.138H230.204V295.52H246.331V263.265H278.586V247.138Z" fill="#1E293B"/>
<path d="M294.714 279.393H262.459V295.52H294.714V279.393Z" fill="#1E293B"/>
<path d="M294.714 214.883H278.586V231.01H294.714V214.883Z" fill="#1E293B"/>
<path d="M230.204 231.01H246.331V182.628H214.077V198.755H230.204V231.01Z" fill="#1E293B"/>
<path d="M262.459 150.373H246.331V134.245H230.204V150.373H214.076V166.5H278.586V150.373H294.714V134.245H262.459V150.373Z" fill="#1E293B"/>
<path d="M294.714 182.628H262.459V198.755H294.714V182.628Z" fill="#1E293B"/>
</g>
<defs>
<clipPath id="clip0_170_3474">
<rect width="258.039" height="258.039" fill="white" transform="translate(36.674 37.4805)"/>
</clipPath>
</defs>
</svg>
