<svg width="251" height="331" viewBox="0 0 251 331" fill="none" xmlns="http://www.w3.org/2000/svg">
<g style="mix-blend-mode:plus-lighter" clip-path="url(#clip0_174_4557)">
<path opacity="0.54" d="M173.944 168.722H153.658V190.865H173.944V168.722Z" fill="#0A0A0A"/>
<path opacity="0.05" d="M201.518 168.722H181.232V190.865H201.518V168.722Z" fill="#0A0A0A"/>
<path opacity="0.92" d="M229.083 168.722H208.797V190.865H229.083V168.722Z" fill="#0A0A0A"/>
<path opacity="0.87" d="M256.657 168.722H236.372V190.865H256.657V168.722Z" fill="#0A0A0A"/>
<path opacity="0.53" d="M201.518 196.747H181.232V218.889H201.518V196.747Z" fill="#0A0A0A"/>
<path opacity="0.63" d="M229.083 196.747H208.797V218.889H229.083V196.747Z" fill="#0A0A0A"/>
<path opacity="0.04" d="M256.657 196.747H236.372V218.889H256.657V196.747Z" fill="#0A0A0A"/>
<path opacity="0.44" d="M229.083 224.783H208.797V246.926H229.083V224.783Z" fill="#0A0A0A"/>
<path opacity="0.08" d="M256.657 224.783H236.372V246.926H256.657V224.783Z" fill="#0A0A0A"/>
<path opacity="0.36" d="M256.657 252.808H236.372V274.95H256.657V252.808Z" fill="#0A0A0A"/>
<path opacity="0.74" d="M236.367 162.278H256.653V140.135H236.367V162.278Z" fill="#0A0A0A"/>
<path opacity="0.21" d="M208.798 162.278H229.084V140.135H208.798V162.278Z" fill="#0A0A0A"/>
<path opacity="0.79" d="M181.22 162.278H201.505V140.135H181.22V162.278Z" fill="#0A0A0A"/>
<path opacity="0.8" d="M153.651 162.278H173.937V140.135H153.651V162.278Z" fill="#0A0A0A"/>
<path opacity="0.63" d="M126.082 162.278H146.368V140.135H126.082V162.278Z" fill="#0A0A0A"/>
<path opacity="0.78" d="M236.367 134.251H256.653V112.109H236.367V134.251Z" fill="#0A0A0A"/>
<path opacity="0.07" d="M208.798 134.251H229.084V112.109H208.798V134.251Z" fill="#0A0A0A"/>
<path opacity="0.67" d="M181.22 134.251H201.505V112.109H181.22V134.251Z" fill="#0A0A0A"/>
<path opacity="0.59" d="M153.651 134.251H173.937V112.109H153.651V134.251Z" fill="#0A0A0A"/>
<path opacity="0.78" d="M126.082 134.251H146.368V112.109H126.082V134.251Z" fill="#0A0A0A"/>
<path opacity="0.31" d="M98.5137 134.251H118.8V112.109H98.5137V134.251Z" fill="#0A0A0A"/>
<path opacity="0.52" d="M236.367 106.224H256.653V84.0818H236.367V106.224Z" fill="#0A0A0A"/>
<path opacity="0.09" d="M208.798 106.224H229.084V84.0818H208.798V106.224Z" fill="#0A0A0A"/>
<path opacity="0.21" d="M181.22 106.224H201.505V84.0818H181.22V106.224Z" fill="#0A0A0A"/>
<path opacity="0.92" d="M126.082 106.224H146.368V84.0818H126.082V106.224Z" fill="#0A0A0A"/>
<path opacity="0.16" d="M98.5137 106.224H118.8V84.0818H98.5137V106.224Z" fill="#0A0A0A"/>
<path opacity="0.86" d="M70.9348 106.224H91.2207V84.0818H70.9348V106.224Z" fill="#0A0A0A"/>
<path d="M43.3662 106.224H63.6522V84.0818H43.3662V106.224Z" fill="#0A0A0A"/>
<path opacity="0.82" d="M15.7976 106.224H36.0835V84.0818H15.7976L15.7976 106.224Z" fill="#0A0A0A"/>
<path opacity="0.64" d="M8.50534 84.0744H0V106.217H8.50534V84.0744Z" fill="#0A0A0A"/>
<path opacity="0.46" d="M236.367 78.1973H256.653V56.055H236.367V78.1973Z" fill="#0A0A0A"/>
<path opacity="0.22" d="M208.798 78.1973H229.084V56.055H208.798V78.1973Z" fill="#0A0A0A"/>
<path opacity="0.01" d="M181.22 78.1973H201.505V56.055H181.22V78.1973Z" fill="#0A0A0A"/>
<path opacity="0.49" d="M153.651 78.1973H173.937V56.055H153.651V78.1973Z" fill="#0A0A0A"/>
<path opacity="0.86" d="M126.082 78.1973H146.368V56.055H126.082V78.1973Z" fill="#0A0A0A"/>
<path opacity="0.36" d="M98.5137 78.1973H118.8V56.055H98.5137V78.1973Z" fill="#0A0A0A"/>
<path opacity="0.44" d="M70.9348 78.1973H91.2207V56.055H70.9348V78.1973Z" fill="#0A0A0A"/>
<path opacity="0.91" d="M43.3662 78.1973H63.6522V56.055H43.3662V78.1973Z" fill="#0A0A0A"/>
<path opacity="0.86" d="M15.7976 78.1973H36.0835V56.055H15.7976L15.7976 78.1973Z" fill="#0A0A0A"/>
<path opacity="0.2" d="M8.50534 56.0496H0V78.192H8.50534V56.0496Z" fill="#0A0A0A"/>
<path opacity="0.2" d="M236.367 50.1707H256.653V28.0284L236.367 28.0284V50.1707Z" fill="#0A0A0A"/>
<path opacity="0.99" d="M208.798 50.1707H229.084V28.0284L208.798 28.0284V50.1707Z" fill="#0A0A0A"/>
<path opacity="0.5" d="M181.22 50.1707H201.505V28.0284L181.22 28.0284V50.1707Z" fill="#0A0A0A"/>
<path opacity="0.77" d="M153.651 50.1707H173.937V28.0284L153.651 28.0284V50.1707Z" fill="#0A0A0A"/>
<path opacity="0.58" d="M126.082 50.1707H146.368V28.0284L126.082 28.0284V50.1707Z" fill="#0A0A0A"/>
<path opacity="0.46" d="M98.5137 50.1707H118.8V28.0284L98.5137 28.0284V50.1707Z" fill="#0A0A0A"/>
<path opacity="0.24" d="M70.9348 50.1707H91.2207V28.0284L70.9348 28.0284V50.1707Z" fill="#0A0A0A"/>
<path opacity="0.26" d="M43.3662 50.1707H63.6522V28.0284L43.3662 28.0284V50.1707Z" fill="#0A0A0A"/>
<path opacity="0.33" d="M15.7976 50.1707H36.0835V28.0284L15.7976 28.0284L15.7976 50.1707Z" fill="#0A0A0A"/>
<path opacity="0.65" d="M8.50534 28.0248H0V50.1671H8.50534V28.0248Z" fill="#0A0A0A"/>
<path opacity="0.02" d="M236.367 22.144L256.653 22.144V0.0016346L236.367 0.0016346V22.144Z" fill="#0A0A0A"/>
<path opacity="0.67" d="M208.798 22.144L229.084 22.144V0.0016346L208.798 0.0016346V22.144Z" fill="#0A0A0A"/>
<path opacity="0.14" d="M181.22 22.144L201.505 22.144V0.0016346L181.22 0.0016346V22.144Z" fill="#0A0A0A"/>
<path opacity="0.53" d="M153.651 22.144L173.937 22.144V0.0016346L153.651 0.0016346V22.144Z" fill="#0A0A0A"/>
<path opacity="0.27" d="M126.082 22.144L146.368 22.144V0.0016346L126.082 0.0016346V22.144Z" fill="#0A0A0A"/>
<path opacity="0.4" d="M98.5137 22.144L118.8 22.144V0.0016346L98.5137 0.0016346V22.144Z" fill="#0A0A0A"/>
<path opacity="0.22" d="M70.9348 22.144L91.2207 22.144V0.0016346L70.9348 0.0016346V22.144Z" fill="#0A0A0A"/>
<path opacity="0.39" d="M43.3662 22.144L63.6522 22.144V0.0016346L43.3662 0.0016346V22.144Z" fill="#0A0A0A"/>
<path opacity="0.33" d="M15.7976 22.144L36.0835 22.144V0.0016346L15.7976 0.0016346L15.7976 22.144Z" fill="#0A0A0A"/>
<path opacity="0.06" d="M8.50534 0H0V22.1423H8.50534V0Z" fill="#0A0A0A"/>
</g>
<defs>
<clipPath id="clip0_174_4557">
<rect width="549" height="331" fill="white"/>
</clipPath>
</defs>
</svg>
