<svg width="96" height="96" viewBox="0 0 96 96" fill="none" xmlns="http://www.w3.org/2000/svg">
<g filter="url(#filter0_d_249_8524)">
<rect x="16" y="16" width="64" height="64" rx="32" fill="white"/>
<path d="M49.3077 37.5872C54.0777 38.1872 57.8127 41.9222 58.4127 46.6922C58.5027 47.4572 59.1477 48.0122 59.8977 48.0122C59.9577 48.0122 60.0177 48.0122 60.0777 47.9972C60.9027 47.8922 61.4877 47.1422 61.3827 46.3172C60.6177 40.1822 55.8027 35.3672 49.6677 34.6022C48.8427 34.5122 48.0927 35.0972 48.0027 35.9222C47.8977 36.7472 48.4827 37.4972 49.3077 37.5872ZM49.8777 40.7522C49.0827 40.5422 48.2577 41.0222 48.0477 41.8322C47.8377 42.6422 48.3177 43.4522 49.1277 43.6622C50.7027 44.0672 51.9327 45.2972 52.3527 46.8872C52.5327 47.5622 53.1327 48.0122 53.8077 48.0122C53.9277 48.0122 54.0627 47.9972 54.1827 47.9672C54.9777 47.7572 55.4577 46.9322 55.2627 46.1372C54.5577 43.4822 52.5027 41.4272 49.8777 40.7522ZM58.8327 52.9022L55.0227 52.4672C54.1077 52.3622 53.2077 52.6772 52.5627 53.3222L49.8027 56.0822C45.5577 53.9222 42.0777 50.4572 39.9177 46.1972L42.6927 43.4222C43.3377 42.7772 43.6527 41.8772 43.5477 40.9622L43.1127 37.1822C42.9327 35.6672 41.6577 34.5272 40.1277 34.5272H37.5327C35.8377 34.5272 34.4277 35.9372 34.5327 37.6322C35.3277 50.4422 45.5727 60.6722 58.3677 61.4672C60.0627 61.5722 61.4727 60.1622 61.4727 58.4672V55.8722C61.4877 54.3572 60.3477 53.0822 58.8327 52.9022Z" fill="#3E6BBB"/>
</g>
<defs>
<filter id="filter0_d_249_8524" x="0" y="0" width="96" height="96" filterUnits="userSpaceOnUse" color-interpolation-filters="sRGB">
<feFlood flood-opacity="0" result="BackgroundImageFix"/>
<feColorMatrix in="SourceAlpha" type="matrix" values="0 0 0 0 0 0 0 0 0 0 0 0 0 0 0 0 0 0 127 0" result="hardAlpha"/>
<feOffset/>
<feGaussianBlur stdDeviation="8"/>
<feComposite in2="hardAlpha" operator="out"/>
<feColorMatrix type="matrix" values="0 0 0 0 0 0 0 0 0 0 0 0 0 0 0 0 0 0 0.08 0"/>
<feBlend mode="normal" in2="BackgroundImageFix" result="effect1_dropShadow_249_8524"/>
<feBlend mode="normal" in="SourceGraphic" in2="effect1_dropShadow_249_8524" result="shape"/>
</filter>
</defs>
</svg>
